Coordinates
version=1
nRows=13
nColumns=36
inDegrees=yes

Units are S.I. units (second, meters, Newtons, ...)
If the header above contains a line with 'inDegrees', this indicates whether rotational values are in degrees (yes) or radians (no).

endheader
time	pelvis_tilt	pelvis_list	pelvis_rotation	pelvis_tx	pelvis_ty	pelvis_tz	hip_flexion_r	hip_adduction_r	hip_rotation_r	knee_angle_r	knee_angle_r_beta	ankle_angle_r	subtalar_angle_r	mtp_angle_r	hip_flexion_l	hip_adduction_l	hip_rotation_l	knee_angle_l	knee_angle_l_beta	ankle_angle_l	subtalar_angle_l	mtp_angle_l	lumbar_extension	lumbar_bending	lumbar_rotation	arm_flex_r	arm_add_r	arm_rot_r	elbow_flex_r	pro_sup_r	arm_flex_l	arm_add_l	arm_rot_l	elbow_flex_l	pro_sup_l
      0.00000000	      2.53060749	     -1.90766964	      1.98074343	     -0.94444081	      1.24303415	     -0.03947653	     -6.94858460	      2.77147738	      2.20098640	      4.71246207	      0.08224798	      1.64235035	    -15.95445052	     -6.29498152	     -5.45954374	     -3.61474822	     -1.70977230	      7.20140495	      0.12568823	     11.57697936	     -3.49438693	     -6.29498152	     -8.80677080	      3.92496495	     -1.61551717	      8.19395542	     -7.08701652	     45.29219227	     28.15033231	     66.71215170	      6.21430036	     -4.85580362	     42.16895617	     26.97314030	     59.50680942
      0.00166670	      1.00652347	     -0.83948465	      1.62827600	     -0.94265144	      1.24409029	     -0.03926922	     -4.59742157	      1.73461621	      2.45464804	      5.69381794	      0.09937587	      5.41687064	    -13.05301423	     -6.38919900	     -3.45114299	     -1.66052342	     -1.35733427	      7.58295994	      0.13234762	     11.58332006	     -1.86493649	     -6.38919900	     -7.02458100	      2.75366357	     -1.16449122	      8.42023311	     -7.88221530	     51.32660995	     28.57400588	     68.44173255	      6.61037750	     -6.00115830	     46.79932355	     28.21937665	     61.27831312
      0.00333330	      0.27473727	      0.53833362	      1.01854241	     -0.94257552	      1.24303538	     -0.03816142	     -4.23958197	      0.14074581	      1.57835443	      4.74910328	      0.08288749	      5.79142534	    -11.65459511	     -6.64790457	     -3.14200025	     -0.15783911	     -2.24149660	      6.97344156	      0.12170952	     11.20454723	     -1.20807660	     -6.64790457	     -5.97349120	      0.99510564	     -0.54230394	      9.08541784	     -8.27546859	     57.55884476	     28.94841234	     68.93254518	      7.60587158	     -7.74860073	     52.63511186	     29.34582171	     63.40547500
      0.00500000	      0.74780476	      1.17483041	      0.66967259	     -0.94254307	      1.24463488	     -0.03741904	     -5.22661342	     -0.63913315	      1.12540161	      3.93744135	      0.06872132	      6.37154693	    -10.17065703	     -6.76659216	     -4.41421392	      0.60809470	     -2.29757809	      5.82713355	      0.10170267	     10.54033824	     -1.43212381	     -6.76659216	     -6.55294906	      0.25464749	     -0.05521884	      9.54036927	     -8.52583727	     61.14184752	     29.23601244	     68.64838526	      8.58010728	     -8.56524963	     56.82406577	     29.63203125	     64.98411310
      0.00666670	      1.01250733	      1.47030148	      0.60790039	     -0.94166808	      1.24534068	     -0.03727799	     -5.99335507	     -0.95439198	      1.02275104	      3.15808579	      0.05511900	      6.39830520	     -9.77796793	     -6.80408444	     -5.19223594	      1.02047584	     -2.03680037	      5.01158878	      0.08746872	      9.87738522	     -1.89366986	     -6.80408444	     -6.95128019	     -0.03973323	      0.00087890	      9.67306934	     -8.45064140	     61.56371027	     29.17764156	     68.38621815	      8.74333544	     -8.60316700	     57.67068483	     29.44673660	     65.23432555
      0.00833330	      1.43873647	      1.59470405	      0.52974067	     -0.94211663	      1.24594242	     -0.03869943	     -6.79842544	     -1.14568444	      1.28271402	      2.59534611	      0.04529733	      6.38561565	     -9.54329696	     -6.85110549	     -5.92992991	      1.22731206	     -2.07872234	      4.44364142	      0.07755617	      9.47928933	     -2.01464679	     -6.85110549	     -7.62659752	     -0.09512354	      0.29270633	     10.08545990	     -8.64918782	     62.88980347	     29.30756797	     68.16489131	      9.37979259	     -8.57385121	     60.13616188	     29.10663810	     66.03283796
      0.01000000	      1.46777044	      1.66462277	      0.61065244	     -0.94188561	      1.24629057	     -0.03874187	     -7.03538734	     -1.26708809	      1.38624822	      2.26218102	      0.03948251	      6.41843960	     -9.32815687	     -6.93326488	     -6.01111151	      1.32845492	     -1.99505315	      4.27800683	      0.07466530	      9.24212951	     -2.14574393	     -6.93326488	     -7.69531398	     -0.17465316	      0.57507818	     10.25489870	     -8.90827497	     64.47526604	     29.72590083	     67.20845976	     10.36854487	     -8.52460866	     64.37449991	     28.47205568	     67.25028039
      0.01166670	      1.63022110	      1.70179362	      0.69512991	     -0.94184728	      1.24816665	     -0.03768329	     -7.43634045	     -1.29906302	      1.45782358	      1.87429777	      0.03271267	      6.24440524	     -9.28130894	     -7.04670073	     -6.28113460	      1.36976224	     -1.95404608	      4.02519722	      0.07025294	      8.82096658	     -2.41504057	     -7.04670073	     -8.00747423	     -0.19156497	      0.58110209	     10.34899797	     -9.05052667	     64.61096485	     30.10908054	     65.80741588	     10.72090301	     -8.46120395	     65.54124117	     28.30839226	     66.83560984
      0.01333330	      1.74772345	      1.71603921	      0.72515937	     -0.94177211	      1.24780261	     -0.03747972	     -7.68608656	     -1.28440252	      1.57174799	      1.65351147	      0.02885922	      6.09180055	     -9.29962403	     -7.15460386	     -6.44477246	      1.35694109	     -2.18732858	      3.91893405	      0.06839830	      8.55678579	     -2.42286509	     -7.15460386	     -8.26393425	     -0.22950111	      0.64548459	     10.36655394	     -9.13572868	     64.80145968	     30.44228578	     64.57447488	     11.08166021	     -8.44977082	     66.55737463	     28.19386880	     66.38086328
      0.01500000	      1.82892769	      1.72229885	      0.83999812	     -0.94059476	      1.24776842	     -0.03695771	     -7.95028051	     -1.22617561	      1.51066061	      1.40945839	      0.02459969	      6.09110869	     -9.11320202	     -7.23365929	     -6.62901010	      1.31955989	     -2.14256776	      3.77838295	      0.06594522	      8.28699518	     -2.47858610	     -7.23365929	     -8.35980706	     -0.27593946	      0.57641425	     10.32447253	     -9.24013051	     65.11634538	     30.85263574	     63.53103413	     11.26065857	     -8.50132831	     67.46164192	     28.14693168	     65.80517366
      0.01666670	      1.82007206	      1.71414661	      0.92271599	     -0.94160577	      1.24857676	     -0.03665223	     -7.98683049	     -1.16779421	      1.37327527	      1.26239251	      0.02203291	      6.16785990	     -8.85612904	     -7.30343301	     -6.60654482	      1.26863987	     -2.17814253	      3.69308903	      0.06445656	      8.00430825	     -2.69228823	     -7.30343301	     -8.42105751	     -0.28356234	      0.49716067	     10.27993193	     -9.28486553	     65.13067618	     31.14210841	     62.60063690	     11.32581486	     -8.56089534	     67.78332772	     28.13726103	     65.06519268
      0.01833330	      1.93833116	      1.70625027	      1.07840728	     -0.94208599	      1.24749953	     -0.03727800	     -8.15341871	     -1.09804837	      1.26055524	      1.14513404	      0.01998636	      6.14880663	     -8.73538414	     -7.39561650	     -6.66445049	      1.19978466	     -2.29925554	      3.76533833	      0.06571755	      7.98593944	     -2.40199910	     -7.39561650	     -8.62159866	     -0.30337967	      0.36245977	     10.25171247	     -9.31393017	     64.99316241	     31.43384044	     61.47706312	     11.39503018	     -8.60557093	     67.81127958	     28.25416190	     63.76007844
      0.02000000	      1.90918453	      1.62587641	      1.06714224	     -0.94505956	      1.24633403	     -0.03470602	     -8.04157760	     -0.93689490	      1.61277466	      1.07012187	      0.01867715	      6.09052486	     -9.08531863	     -7.42294853	     -6.55263204	      1.05311116	     -2.56209412	      3.68604657	      0.06433365	      7.78340674	     -2.30935936	     -7.42294853	     -8.77453626	     -0.27961398	      0.45675017	     10.25814995	     -9.38924313	     64.84552939	     31.79992565	     60.96404708	     11.57121687	     -8.76293984	     67.85205100	     28.59273396	     63.24563007
